Motion_pl09
version=1
nRows=15
nColumns=43
inDegrees=yes
endheader
time	pelvis_tilt	pelvis_list	pelvis_rotation	pelvis_tx	pelvis_ty	pelvis_tz	hip_flexion_r	hip_adduction_r	hip_rotation_r	knee_angle_r	ankle_angle_r	subtalar_angle_r	mtp_angle_r	hip_flexion_l	hip_adduction_l	hip_rotation_l	knee_angle_l	ankle_angle_l	subtalar_angle_l	mtp_angle_l	lumbar_extension	lumbar_bending	lumbar_rotation	neck_flexion	neck_lateral_bending	neck_rotation	arm_flex_r	arm_add_r	arm_rot_r	elbow_flex_r	pro_sup_r	wrist_flex_r	wrist_dev_r	hand_finger_flex_r	arm_flex_l	arm_add_l	arm_rot_l	elbow_flex_l	pro_sup_l	wrist_flex_l	wrist_dev_l	hand_finger_flex_l
      3.28500000	     -1.67287728	    -10.32481201	     89.71717097	      0.00051104	      0.45927168	      0.43267910	     97.54175243	    -12.51653856	      4.61477456	   -129.69676442	     22.86709870	     29.71866089	     33.43490359	     95.21347851	    -14.24294357	      3.48059309	   -127.61413776	     23.60495238	     25.29182814	     29.75984444	    -49.26204266	     -4.27384357	     -2.76239408	     16.49952000	      8.01727861	     -2.23382966	    126.31975102	    -18.07704220	     39.27591657	     29.21705689	    122.82481168	      2.72580000	    -16.31889209	    -37.29349032	    133.88596949	    -17.80507271	     63.81039949	     35.19700599	    121.21828552	     -6.51686070	     -8.48917086	    -23.92845747
      3.28750000	     -1.72175124	    -10.03237221	     89.68734844	      0.00050511	      0.45947840	      0.43199599	     97.26430471	    -12.56224679	      4.67684886	   -129.80869446	     22.77843457	     29.75501623	     33.73380948	     94.89973447	    -14.27683684	      3.52059408	   -127.75192069	     23.49415900	     25.72901292	     29.95413757	    -49.35853566	     -4.31020823	     -2.79419986	     16.44730456	      7.94262490	     -2.12054968	    126.41918422	    -17.93730941	     39.34381736	     28.83464183	    123.18855076	      2.89500028	    -16.19705863	    -37.21914523	    133.97818272	    -17.73529553	     64.12916039	     34.91763988	    121.21326551	     -6.36626858	     -8.33547448	    -23.89504774
      3.29000000	     -1.72273501	    -10.02092314	     89.68573091	      0.00046941	      0.45962562	      0.43159204	     97.21596734	    -12.57882274	      4.68199894	   -129.82890497	     22.77247491	     29.75483711	     33.73931381	     94.84899955	    -14.28764964	      3.52511160	   -127.76513751	     23.48918016	     25.73115945	     29.95748018	    -49.24782480	     -4.31078188	     -2.79437403	     16.46084139	      7.94115529	     -2.11937697	    126.42391475	    -17.98095232	     39.33462864	     28.81422990	    123.19309229	      2.89419974	    -16.19280648	    -37.21931035	    134.00814318	    -17.77761468	     64.12063062	     34.89946699	    121.21129800	     -6.36863926	     -8.33072978	    -23.89614023
      3.29250000	     -1.73642944	     -9.95353312	     89.67483102	      0.00045810	      0.45966486	      0.43094571	     97.13551964	    -12.64149254	      4.67347306	   -129.88870019	     22.74946099	     29.76151049	     33.76737983	     94.75036874	    -14.31270245	      3.52632740	   -127.82359012	     23.47377320	     25.75365162	     29.97535575	    -49.10666362	     -4.32784255	     -2.78755665	     16.53074989	      7.93153544	     -2.10811552	    126.32793478	    -18.00949509	     39.34592161	     28.74661839	    123.22542813	      2.91430235	    -16.18338639	    -37.21212320	    133.92952561	    -17.81143100	     64.17275305	     34.86896785	    121.21351075	     -6.34655001	     -8.32753596	    -23.89106275
      3.29500000	     -1.73824040	     -9.93677253	     89.67123247	      0.00042307	      0.45979864	      0.43054490	     97.09232907	    -12.65564975	      4.67966284	   -129.91183077	     22.74003950	     29.76272120	     33.77307202	     94.70273614	    -14.31851474	      3.53058125	   -127.84721837	     23.46621428	     25.75925755	     29.97889371	    -49.00477581	     -4.32900649	     -2.78979282	     16.53632930	      7.92948869	     -2.10543550	    126.34179681	    -18.05158468	     39.33539222	     28.72403814	    123.23106223	      2.91359586	    -16.17637791	    -37.21181195	    133.96266078	    -17.85241470	     64.16493795	     34.84378585	    121.21277801	     -6.34704071	     -8.31925231	    -23.89138950
      3.29750000	     -1.75987669	     -9.83882785	     89.65613528	      0.00038685	      0.45977846	      0.42984912	     97.00894820	    -12.72669120	      4.68936176	   -130.00638135	     22.68435373	     29.77952564	     33.80997930	     94.59189727	    -14.34107447	      3.53504406	   -127.94266339	     23.42690294	     25.80473711	     30.00228080	    -48.88210193	     -4.34903758	     -2.78318830	     16.57508662	      7.91107308	     -2.08257069	    126.25078667	    -18.06084239	     39.34921039	     28.62960541	    123.27912953	      2.94162765	    -16.14942002	    -37.19960884	    133.88416079	    -17.86783195	     64.23633923	     34.77932693	    121.22350664	     -6.31000220	     -8.29924402	    -23.88167881
      3.30000000	     -1.76116214	     -9.81822694	     89.65366769	      0.00034455	      0.45992378	      0.42946509	     96.96768436	    -12.73730136	      4.69887458	   -130.02753852	     22.67078391	     29.78215327	     33.81588738	     94.54854749	    -14.34644176	      3.53784526	   -127.96036865	     23.41641010	     25.81238227	     30.00588558	    -48.78746453	     -4.34878454	     -2.78579701	     16.57228169	      7.90790973	     -2.07907290	    126.26771725	    -18.10369707	     39.33804311	     28.60485280	    123.28566036	      2.94089567	    -16.14012848	    -37.19907108	    133.92299827	    -17.90898727	     64.22777126	     34.75008329	    121.22373712	     -6.31011517	     -8.28885232	    -23.88193566
      3.30250000	     -1.85815579	     -9.48388803	     89.64661299	      0.00032459	      0.46034724	      0.42879490	     96.70505337	    -12.80389388	      4.86507722	   -130.13887002	     22.19180675	     29.99622019	     34.16776822	     94.16671030	    -14.38056752	      3.49402095	   -128.03216304	     23.11842239	     26.20892791	     30.23060836	    -48.92957753	     -4.40308880	     -2.88024140	     16.22870780	      7.77720988	     -1.92766284	    126.29578864	    -17.93944524	     39.25020060	     28.25805049	    123.68198892	      3.02622978	    -15.98270845	    -37.13762056	    133.99861166	    -17.81847449	     64.53375646	     34.42775751	    121.29379293	     -6.17828686	     -8.15444385	    -23.87541660
      3.30500000	     -1.85949024	     -9.46362491	     89.63853710	      0.00026460	      0.46048918	      0.42839995	     96.66454352	    -12.81895011	      4.87358024	   -130.16100510	     22.18726689	     29.99668401	     34.17413857	     94.12878324	    -14.38317103	      3.49480240	   -128.04915099	     23.11436016	     26.21040158	     30.23462760	    -48.83066295	     -4.40407763	     -2.87574247	     16.24013043	      7.77720027	     -1.92662283	    126.29818529	    -17.97933251	     39.24034074	     28.23959217	    123.68704110	      3.02464247	    -15.97791934	    -37.13778725	    134.03230645	    -17.86314330	     64.52297004	     34.40759733	    121.29288927	     -6.18160956	     -8.14925245	    -23.87715766
      3.30750000	     -1.87330094	     -9.38155762	     89.62482569	      0.00019930	      0.46049905	      0.42773995	     96.59328022	    -12.86800133	      4.89779287	   -130.24045651	     22.16062088	     30.00811250	     34.21052970	     94.04149525	    -14.40994064	      3.49260411	   -128.13263434	     23.08855360	     26.22422550	     30.25769143	    -48.70658337	     -4.40913704	     -2.85924611	     16.29410621	      7.76899817	     -1.91592581	    126.20254134	    -17.99818404	     39.23935289	     28.19069011	    123.72176987	      3.03591008	    -15.96738596	    -37.13323083	    133.95215204	    -17.90439894	     64.56866290	     34.37522400	    121.30033413	     -6.16405861	     -8.14710953	    -23.87615477
      3.31000000	     -1.87436611	     -9.35914738	     89.62261792	      0.00015114	      0.46065286	      0.42735137	     96.55423788	    -12.87687971	      4.90874078	   -130.26082286	     22.15057111	     30.01029270	     34.21698136	     94.00077869	    -14.41708753	      3.49551734	   -128.15269609	     23.07845886	     26.22731179	     30.26158293	    -48.61345462	     -4.40813080	     -2.86048117	     16.29392424	      7.76591800	     -1.91366164	    126.21323148	    -18.03889248	     39.22743822	     28.17290404	    123.72676111	      3.03348983	    -15.96077606	    -37.13374336	    133.98470386	    -17.94415255	     64.55885786	     34.35292120	    121.30015560	     -6.16603954	     -8.13968192	    -23.87735368
      3.31250000	     -1.88847611	     -9.24129105	     89.61310073	      0.00008552	      0.46065368	      0.42663040	     96.45692294	    -12.91641533	      4.96376531	   -130.36198864	     22.08107324	     30.03431672	     34.26354598	     93.89218896	    -14.45800430	      3.49635097	   -128.26436509	     23.00578080	     26.25893910	     30.28956714	    -48.50898887	     -4.40906576	     -2.84174433	     16.28639488	      7.73712500	     -1.89110072	    126.10031633	    -18.04928163	     39.22303063	     28.11590622	    123.76947365	      3.04745591	    -15.94008426	    -37.12933303	    133.89036501	    -17.97125653	     64.61536702	     34.29861510	    121.31235118	     -6.13673025	     -8.12045866	    -23.87248633
      3.31500000	     -1.88982339	     -9.21919612	     89.61057907	      0.00004879	      0.46082289	      0.42625545	     96.41845549	    -12.92316605	      4.97442063	   -130.38015885	     22.06700499	     30.03833604	     34.27045186	     93.84907814	    -14.46439452	      3.50039580	   -128.28377759	     22.99070515	     26.26409503	     30.29352200	    -48.42136782	     -4.40900788	     -2.84350772	     16.27528617	      7.73184438	     -1.88761367	    126.11525058	    -18.08982589	     39.20932564	     28.09954848	    123.77406136	      3.04442130	    -15.93289600	    -37.13018498	    133.92739813	    -18.00973751	     64.60340735	     34.27463075	    121.31207503	     -6.13863035	     -8.11064557	    -23.87348420
      3.31750000	     -1.95456533	     -8.87716609	     89.54804971	      0.00011158	      0.46128265	      0.42547163	     96.11670775	    -12.90995001	      5.12282418	   -130.48202375	     21.62533107	     30.27193473	     34.59908882	     93.48451054	    -14.56880946	      3.48197178	   -128.39584664	     22.54980057	     26.52503359	     30.48953544	    -48.54526883	     -4.47753702	     -2.84715027	     15.72553074	      7.54338821	     -1.74162157	    125.99254738	    -18.01391898	     39.02049153	     27.98997607	    123.99958709	      3.04989622	    -15.83596859	    -37.12884359	    133.86267030	    -17.96441891	     64.69015563	     34.08591812	    121.34266945	     -6.06413146	     -7.95238443	    -23.87432779
      3.32000000	     -1.95706841	     -8.85562879	     89.54878460	      0.00008742	      0.46143442	      0.42509762	     96.08255565	    -12.92083871	      5.13478866	   -130.49917488	     21.62019886	     30.27290482	     34.60640437	     93.44547322	    -14.57870644	      3.48954122	   -128.41503989	     22.54535761	     26.52646564	     30.49420769	    -48.45183567	     -4.47568937	     -2.84522795	     15.73485230	      7.54353540	     -1.74002175	    125.99646946	    -18.05440764	     39.00932637	     27.97073045	    124.00361234	      3.04857144	    -15.82974595	    -37.12910836	    133.89168309	    -18.00643882	     64.67832469	     34.06512928	    121.34199978	     -6.06645583	     -7.94534306	    -23.87544117
